<svg width="60" height="60" fill="none" xmlns="http://www.w3.org/2000/svg"><path fill-rule="evenodd" clip-rule="evenodd" d="M60 0H0v60h60V0zm-3.148 3.082H3.082v53.836h53.77V3.082z" fill="#000"/><path d="M40.827 52.525h-1.575c-.082 0-.123-.036-.123-.108l-.016-10.72c0-.082.041-.123.123-.123h1.422l2.659 6.202-.077-6.079c0-.082.046-.123.138-.123h1.56c.062 0 .092.041.092.123l.016 10.735c0 .062-.026.093-.077.093h-1.383l-2.728-5.794.115 5.67c0 .082-.049.123-.146.123zm-5.917.153c-.569 0-1.081-.14-1.537-.422a3.247 3.247 0 01-1.114-1.138 3.125 3.125 0 01-.415-1.598v-4.987c0-.574.14-1.097.422-1.568a3.16 3.16 0 011.115-1.137 2.86 2.86 0 011.529-.43c.579 0 1.101.138 1.568.414a3.12 3.12 0 011.106 1.13 3.08 3.08 0 01.415 1.59v.723c0 .041-.026.061-.077.061h-1.767c-.041 0-.062-.02-.062-.061v-.6c0-.399-.113-.73-.338-.99a1.07 1.07 0 00-.845-.392c-.302 0-.571.125-.807.376a1.25 1.25 0 00-.354.884v4.987c0 .343.116.64.346.891.23.246.502.37.815.37.338 0 .62-.121.845-.362.225-.246.338-.546.338-.9v-.775h-1.099c-.056 0-.084-.026-.084-.077v-1.76c0-.051.028-.077.084-.077h2.944c.04 0 .061.026.061.077v2.613c0 .589-.138 1.122-.415 1.598a3.247 3.247 0 01-1.114 1.138 2.932 2.932 0 01-1.56.422zm-4.328-.153H28.8c-.05 0-.076-.026-.076-.077l.015-10.812c0-.041.02-.062.061-.062h1.768c.04 0 .061.02.061.062l.016 10.812c0 .05-.02.077-.062.077zm-6.04.153a2.915 2.915 0 01-1.544-.43 3.29 3.29 0 01-1.122-1.145 3.122 3.122 0 01-.415-1.583v-.722c0-.056.026-.085.077-.085h1.767c.041 0 .062.029.062.085v.722c0 .343.115.64.345.891a1.1 1.1 0 00.83.37c.328 0 .607-.126.838-.377.23-.256.346-.55.346-.884 0-.384-.251-.72-.753-1.007a5.945 5.945 0 00-.323-.184 12.42 12.42 0 00-.461-.261l-.523-.285c-.169-.097-.333-.19-.491-.276-.574-.338-1.002-.76-1.284-1.268a3.563 3.563 0 01-.415-1.721c0-.584.144-1.112.43-1.583a3.233 3.233 0 011.123-1.107c.466-.277.97-.415 1.513-.415.559 0 1.071.138 1.537.415a3.2 3.2 0 011.114 1.122c.282.466.423.989.423 1.568v1.29c0 .042-.02.062-.061.062h-1.768c-.04 0-.061-.02-.061-.061l-.016-1.291c0-.37-.115-.669-.345-.9a1.123 1.123 0 00-.823-.345 1.1 1.1 0 00-.83.369c-.23.245-.345.537-.345.876 0 .343.071.63.215.86.148.23.417.451.807.661a38.764 38.764 0 01.776.43c.184.098.35.187.5.27l.268.138c.523.292.935.65 1.238 1.075.307.426.46.948.46 1.568 0 .6-.138 1.137-.414 1.614a3.162 3.162 0 01-1.122 1.13 2.985 2.985 0 01-1.553.414zm-4.132-.153h-5.087c-.04 0-.061-.026-.061-.077l.015-10.812c0-.041.02-.062.062-.062h5.056c.04 0 .061.026.061.077v1.76c0 .04-.02.061-.061.061h-3.227v2.46h3.227c.04 0 .061.02.061.06l.016 1.784c0 .04-.02.061-.062.061h-3.242v2.751h3.242c.041 0 .062.026.062.077v1.798c0 .041-.02.062-.062.062zm-9.677-.015l-2.82.015c-.051 0-.077-.026-.077-.077l.03-10.812c0-.041.021-.062.062-.062l2.943-.015a2.873 2.873 0 011.583.4c.477.281.856.663 1.138 1.145a3.01 3.01 0 01.43 1.583v4.518c0 .605-.146 1.158-.438 1.66a3.421 3.421 0 01-1.184 1.191 3.315 3.315 0 01-1.667.453zm.138-9.068l-1.099.015-.015 7.131h.976c.39 0 .717-.136.984-.407.266-.271.4-.597.4-.976v-4.534c0-.333-.124-.622-.37-.868a1.134 1.134 0 00-.876-.361zm18.575-4.032h-1.768c-.05 0-.076-.026-.076-.077l.03-10.812c0-.04.02-.061.062-.061h3.027c.964 0 1.724.294 2.283.883.563.584.845 1.381.845 2.39 0 .738-.146 1.38-.438 1.93-.297.542-.681.962-1.153 1.26a2.827 2.827 0 01-1.537.445h-1.198v3.965c0 .051-.026.077-.077.077zm1.275-9.083l-1.198.015v3.12h1.198c.333 0 .623-.159.869-.476.246-.323.369-.74.369-1.253 0-.41-.11-.745-.33-1.006-.221-.267-.523-.4-.908-.4zM26.14 39.41h-5.086c-.041 0-.062-.026-.062-.077l.016-10.812c0-.04.02-.061.061-.061h5.056c.041 0 .062.025.062.077v1.76c0 .04-.02.06-.062.06h-3.227v2.46h3.227c.041 0 .062.02.062.061l.015 1.783c0 .041-.02.061-.061.061h-3.243v2.752h3.243c.04 0 .061.025.061.076v1.799c0 .04-.02.061-.061.061zm-8.09 0h-1.776c-.046 0-.07-.026-.07-.077v-8.975h-2.043c-.051 0-.077-.026-.077-.077l.015-1.76c0-.04.02-.061.062-.061h5.978c.057 0 .085.02.085.061v1.76c0 .051-.02.077-.062.077h-2.067l.016 8.975c0 .051-.02.077-.062.077zm-7.539.154a2.915 2.915 0 01-1.544-.43 3.29 3.29 0 01-1.122-1.146 3.122 3.122 0 01-.415-1.583v-.722c0-.056.025-.084.077-.084h1.767c.04 0 .061.028.061.084v.722c0 .344.116.64.346.892.23.246.507.369.83.369.328 0 .607-.126.838-.377.23-.256.345-.55.345-.884 0-.384-.25-.72-.753-1.006a5.993 5.993 0 00-.322-.185 12.482 12.482 0 00-.461-.26l-.523-.285a27.41 27.41 0 00-.492-.277c-.573-.338-1.001-.76-1.283-1.268a3.564 3.564 0 01-.415-1.721c0-.584.143-1.112.43-1.583a3.23 3.23 0 011.122-1.107 2.92 2.92 0 011.514-.415c.559 0 1.07.139 1.537.415a3.2 3.2 0 011.114 1.122c.282.466.423.989.423 1.568v1.29c0 .042-.02.062-.062.062h-1.767c-.041 0-.062-.02-.062-.061l-.015-1.291c0-.369-.115-.669-.346-.9a1.123 1.123 0 00-.822-.345c-.323 0-.6.123-.83.369a1.24 1.24 0 00-.346.876c0 .343.072.63.216.86.148.231.417.451.806.661a37.062 37.062 0 01.776.43c.185.098.352.188.5.27l.269.138c.523.292.935.65 1.237 1.076.308.425.461.947.461 1.567 0 .6-.138 1.138-.415 1.614a3.16 3.16 0 01-1.122 1.13 2.984 2.984 0 01-1.552.415z" fill="#000"/></svg>