<svg width="80" height="66" viewBox="0 0 80 66" fill="none" xmlns="http://www.w3.org/2000/svg">
<path d="M28.6054 63.3874C28.1448 63.0274 27.6327 62.7384 27.0862 62.5301C26.5748 62.3504 26.0389 62.2495 25.497 62.231C24.323 62.2178 23.1526 62.3653 22.0188 62.6698C20.8594 62.9587 19.75 63.2972 18.9305 63.5766C18.1109 63.8554 17.5711 64.065 17.5711 64.065C17.5711 64.065 18.1009 64.3641 18.9405 64.7229C19.9917 65.1778 21.0916 65.5122 22.2187 65.7193C23.4926 65.9689 24.8059 65.9384 26.0667 65.6298C26.6478 65.5056 27.1868 65.2339 27.6316 64.8411C28.0765 64.4483 28.4119 63.9474 28.6054 63.3874Z" fill="#D09F68"/>
<path d="M25.0667 58.2644C25.498 59.2996 26.1859 60.2082 27.0657 60.9056C27.4827 61.2291 27.968 61.4542 28.485 61.5635C29.0178 61.6721 29.571 61.6202 30.0741 61.4136C30.1088 60.3575 29.8232 59.3157 29.2545 58.4244C28.7115 57.5963 28.0363 56.862 27.2556 56.2518C26.5774 55.7074 25.8664 55.2047 25.1267 54.7468C24.537 54.3778 24.1272 54.1688 24.1272 54.1688C24.1272 54.1688 24.1272 54.2984 24.1272 54.5277C24.1272 54.7569 24.1872 55.0656 24.2571 55.4644C24.4115 56.4274 24.6834 57.3677 25.0667 58.2644Z" fill="#D09F68"/>
<path d="M16.7309 60.9557C17.2957 60.9492 17.8515 60.8136 18.3557 60.5599C18.8599 60.3056 19.299 59.9402 19.6394 59.4907C19.3736 59.0214 19.0151 58.6106 18.5856 58.2835C18.1561 57.9563 17.6646 57.7193 17.1407 57.5868C16.0096 57.2853 14.8434 57.1342 13.6725 57.1384C12.4831 57.1384 11.2937 57.1384 10.4043 57.1384H8.915C8.915 57.1384 9.02497 57.268 9.22485 57.4674C9.42473 57.6668 9.73458 57.936 10.1144 58.2447C11.0284 58.9957 12.0363 59.6256 13.1128 60.1181C14.2376 60.6727 15.4761 60.9593 16.7309 60.9557Z" fill="#D09F68"/>
<path d="M18.9902 56.4011C19.3001 56.8262 19.7104 57.1688 20.1845 57.3981C20.6587 57.628 21.1822 57.7372 21.7088 57.7169C22.1247 56.7157 22.1497 55.5957 21.7788 54.5778C21.4238 53.6423 20.9247 52.7683 20.2995 51.9868C19.7299 51.2094 19.1502 50.5414 18.7304 50.0733C18.5205 49.8238 18.3406 49.6345 18.2206 49.505L18.0308 49.3056C18.0308 49.3056 18.0308 49.4256 17.9308 49.6345C17.8554 49.9336 17.7954 50.2363 17.7509 50.5414C17.6037 51.496 17.6037 52.4674 17.7509 53.4214C17.9075 54.5026 18.3336 55.5271 18.9902 56.4011Z" fill="#D09F68"/>
<path d="M4.73732 48.0998C3.91774 47.8407 3.37803 47.6912 3.37803 47.6912C3.37803 47.6912 3.428 47.8307 3.53798 48.0599C3.64789 48.2891 3.81779 48.5981 4.02771 48.9768C4.23756 49.3557 4.49744 49.7939 4.79732 50.2524C4.94723 50.4817 5.10711 50.7109 5.27702 50.9497L5.40699 51.1294L5.5769 51.3485L5.92669 51.7874C6.7901 52.8721 7.93887 53.6972 9.24496 54.1688C9.78586 54.3677 10.3679 54.4291 10.9386 54.3474C11.5093 54.2656 12.0505 54.0435 12.5133 53.7008C12.2464 52.6357 11.6043 51.702 10.7042 51.0697C10.4943 50.9002 10.2545 50.7408 10.0146 50.5712L9.25499 50.093L8.44538 49.6244C8.19553 49.4853 7.93565 49.3557 7.67577 49.2357C6.72293 48.792 5.74126 48.4124 4.73732 48.0998Z" fill="#D09F68"/>
<path d="M12.7937 50.1527C12.9295 50.6566 13.1987 51.1151 13.5733 51.4799C13.9478 51.8446 14.4139 52.102 14.9226 52.2255C15.5822 51.3909 15.9569 50.3676 15.992 49.3055C16.0184 48.4214 15.9582 47.5369 15.8121 46.6646C15.7519 46.223 15.6584 45.7865 15.5323 45.359C15.4023 44.9205 15.2724 44.5219 15.1425 44.1931C15.0125 43.8642 14.9026 43.5851 14.8227 43.3957L14.7127 43.0968L14.5028 43.3957C14.3729 43.5951 14.2129 43.8741 14.033 44.2229C13.5686 45.1094 13.1968 46.0411 12.9236 47.0034C12.8536 47.2725 12.7837 47.5515 12.7237 47.8305C12.6717 48.0939 12.635 48.3602 12.6138 48.6278C12.5888 48.893 12.5888 49.1599 12.6138 49.4249C12.6507 49.6727 12.7109 49.9163 12.7937 50.1527Z" fill="#D09F68"/>
<path d="M3.47791 44.0134C3.67343 44.2398 3.8874 44.4499 4.11761 44.6412C4.33403 44.828 4.5646 44.9979 4.80722 45.1495C5.26048 45.4795 5.78274 45.7029 6.33492 45.8031C6.8871 45.9032 7.45481 45.8773 7.99558 45.7275C8.09021 45.1957 8.05594 44.6489 7.89564 44.133C7.82155 43.8886 7.71749 43.6543 7.58579 43.4354C7.45546 43.208 7.31194 42.9884 7.156 42.7776C6.43964 41.88 5.57421 41.1114 4.59731 40.5054C3.73713 39.9 2.8428 39.3443 1.91874 38.8411L0.659399 38.1634C0.659399 38.1634 0.659398 38.3129 0.739339 38.562C0.819339 38.8112 0.909249 39.16 1.05916 39.5586C1.38017 40.6082 1.83355 41.6128 2.40847 42.5484C2.728 43.0625 3.08549 43.5522 3.47791 44.0134Z" fill="#D09F68"/>
<path d="M9.73477 43.595C9.95906 44.0673 10.3037 44.4728 10.7342 44.771C11.6947 44.2343 12.4106 43.3491 12.7332 42.2995C12.8129 42.0547 12.8763 41.805 12.9231 41.552L12.9831 41.1733C12.9831 41.0537 12.9831 40.9242 13.043 40.7946C13.1026 40.2853 13.1226 39.7722 13.103 39.2599C13.0696 38.3921 12.9861 37.527 12.8531 36.6688C12.7932 36.3299 12.7332 36.0509 12.6932 35.8615C12.6532 35.6722 12.6332 35.5626 12.6332 35.5626L12.3834 35.8117C12.1607 36.0325 11.9505 36.2654 11.7537 36.5093C11.1336 37.2667 10.5975 38.0886 10.1545 38.9609C9.66647 39.9441 9.4036 41.0232 9.38492 42.1201C9.38736 42.3789 9.42092 42.6365 9.48486 42.8874C9.54133 43.1319 9.62515 43.3692 9.73477 43.595Z" fill="#D09F68"/>
<path d="M1.45922 34.546C1.59916 34.8106 1.75958 35.0638 1.93899 35.3034C2.11982 35.5362 2.31684 35.756 2.52866 35.9612C2.91123 36.3629 3.37899 36.6743 3.89779 36.8726C4.4166 37.0709 4.97326 37.1511 5.52711 37.1072C5.72544 36.6075 5.79756 36.0668 5.73702 35.5327C5.70639 35.2783 5.6495 35.0278 5.56711 34.7852C5.50305 34.5333 5.41947 34.2868 5.3172 34.0477C5.07648 33.5433 4.77797 33.0685 4.4277 32.6326L3.88794 31.9549C3.70806 31.7257 3.50818 31.5065 3.31827 31.2872C2.52866 30.4302 1.66913 29.6329 1.05946 29.0449C0.449791 28.4569 0 28.0682 0 28.0682C0 28.0682 0 28.6662 0 29.5631C0.0466269 30.0782 0.12 30.5904 0.21988 31.0979C0.27988 31.3769 0.339821 31.6659 0.409791 31.9549C0.474507 32.2522 0.557971 32.5451 0.659642 32.8319C0.88621 33.421 1.15337 33.9937 1.45922 34.546Z" fill="#D09F68"/>
<path d="M8.40569 36.4595C9.42946 36.1171 10.2883 35.4065 10.8145 34.4663C10.9424 34.2496 11.0526 34.0229 11.1443 33.7886C11.2587 33.5591 11.3588 33.3228 11.4441 33.0811C11.6015 32.6162 11.7218 32.1396 11.804 31.6559C11.8939 31.1875 11.9938 30.7291 12.0438 30.3106C12.0438 30.0913 12.0438 29.892 12.1038 29.7026C12.1637 29.5133 12.1038 29.3339 12.1038 29.1645C12.1588 28.8014 12.1922 28.4353 12.2037 28.0682C12.2037 28.0682 11.764 28.3174 11.1343 28.7659L10.6246 29.1445C10.4447 29.294 10.2647 29.4435 10.0849 29.613C9.69453 29.9613 9.33041 30.3376 8.99543 30.7391C8.82552 30.9484 8.65561 31.1676 8.49567 31.3968L8.27579 31.7456L8.08587 32.1144C7.84778 32.5913 7.67304 33.0972 7.56617 33.6192C7.51047 33.8712 7.48366 34.1286 7.48617 34.3866C7.50098 34.6358 7.54116 34.8829 7.60611 35.1241C7.74981 35.6317 8.02569 36.0924 8.40569 36.4595Z" fill="#D09F68"/>
<path d="M4.24827 22.0888C3.97841 21.5706 3.68856 21.0922 3.40874 20.6039L2.63913 19.3581C2.18934 18.6306 1.85955 18.1623 1.85955 18.1623C1.85955 18.1623 1.68964 18.7303 1.5097 19.6073C1.44976 20.0557 1.37979 20.6039 1.33979 21.152C1.33979 21.431 1.33979 21.73 1.33979 22.029C1.33979 22.3279 1.33979 22.6369 1.33979 22.9458C1.3885 23.5643 1.4888 24.1777 1.63967 24.7796C1.79692 25.3568 2.03227 25.91 2.33931 26.4239C2.61525 26.904 2.99877 27.3139 3.46003 27.6217C3.92122 27.9294 4.44755 28.1266 4.99788 28.1978C5.14755 27.9711 5.26844 27.7267 5.3577 27.4703C5.45215 27.2294 5.51919 26.9787 5.55758 26.7229C5.6343 26.2116 5.61053 25.6904 5.48767 25.1882C5.37322 24.6494 5.20928 24.1223 4.99788 23.6135C4.778 23.0854 4.50815 22.5472 4.24827 22.0888Z" fill="#D09F68"/>
<path d="M10.7148 26.5933C11.0684 26.2477 11.3773 25.8593 11.6343 25.4373C11.915 25.0415 12.1592 24.6212 12.3639 24.1816C12.4739 23.9723 12.5538 23.763 12.6537 23.5637L12.9136 22.9658C13.0736 22.5771 13.1935 22.2183 13.3034 21.9093C13.5333 21.3015 13.6432 20.9128 13.6432 20.9128C13.2268 21.0203 12.8164 21.15 12.4139 21.3015C11.5141 21.6386 10.6637 22.0945 9.88521 22.6568C9.65781 22.812 9.44079 22.9817 9.23554 23.165C9.03572 23.3477 8.84557 23.5406 8.66587 23.7431C8.30718 24.1438 8.00766 24.5935 7.77631 25.0785C7.57166 25.5364 7.4661 26.0322 7.46646 26.5335C7.45966 26.7831 7.49339 27.0322 7.5664 27.271C7.64861 27.5267 7.76282 27.7711 7.90622 27.9985C8.97864 27.8727 9.97267 27.3754 10.7148 26.5933Z" fill="#D09F68"/>
<path d="M7.20594 18.8799C7.362 18.677 7.49292 18.4562 7.59579 18.2221C7.69448 17.9914 7.76821 17.7509 7.81567 17.5046C7.81567 17.2554 7.88558 16.9963 7.91561 16.7372C7.94791 16.1941 7.9177 15.649 7.82564 15.1127C7.74952 14.5387 7.63937 13.9696 7.49579 13.4086C7.20594 12.2725 6.89615 11.2062 6.6063 10.4188C6.31644 9.63155 6.1365 9.03358 6.1365 9.03358C6.1365 9.03358 6.05657 9.1632 5.93663 9.38242C5.81669 9.60164 5.65674 9.94051 5.46689 10.379C5.0143 11.3803 4.67895 12.4304 4.46737 13.5083C4.36815 14.1048 4.31137 14.7076 4.29746 15.3121C4.30092 15.6123 4.32427 15.9119 4.36743 16.209C4.4143 16.4948 4.4777 16.7776 4.55734 17.0561C4.70253 17.587 4.96176 18.08 5.31692 18.5012C5.68027 18.9404 6.14737 19.2829 6.67627 19.4977C6.88021 19.3167 7.05842 19.1089 7.20594 18.8799Z" fill="#D09F68"/>
<path d="M16.6815 14.5547C16.7914 14.3952 16.8414 14.3056 16.8414 14.3056H16.4916C16.2517 14.3056 15.9418 14.3056 15.5621 14.3853C15.1822 14.465 14.7325 14.5049 14.2527 14.6145C14.0129 14.6644 13.763 14.7341 13.5131 14.8038C13.2633 14.8736 13.0234 14.9733 12.7735 15.073C12.2622 15.2663 11.773 15.5136 11.3142 15.8104C10.8762 16.0898 10.4763 16.4248 10.1249 16.807C9.9632 16.9989 9.82558 17.2097 9.71508 17.4348C9.60678 17.6553 9.51979 17.8856 9.45526 18.1225C9.38702 18.3623 9.3534 18.6106 9.35525 18.86C9.3771 19.1269 9.42737 19.3909 9.50523 19.6472C10.0498 19.7529 10.6098 19.7529 11.1544 19.6472C11.6514 19.5336 12.1295 19.349 12.5736 19.0991C12.7835 18.9696 12.9934 18.84 13.1933 18.6905L13.4731 18.4613L13.763 18.2222C14.1242 17.9192 14.4586 17.5857 14.7625 17.2256C15.0625 16.9108 15.3429 16.578 15.602 16.229L15.7819 15.9699L15.9519 15.7407C16.0718 15.5812 16.1717 15.4317 16.2616 15.3022C16.3516 15.1726 16.5915 14.7241 16.6815 14.5547Z" fill="#D09F68"/>
<path d="M10.4645 11.5449C10.9368 11.3149 11.3453 10.9727 11.6539 10.5483C11.9632 10.1442 12.1906 9.68384 12.3235 9.19298C12.8673 7.09957 12.7234 4.87521 12.5334 2.7451C12.4434 1.91793 12.3535 1.35984 12.3535 1.35984C11.9491 1.67347 11.643 2.03753 11.344 2.45608C11.041 2.8519 10.7607 3.26444 10.5044 3.69184C10.206 4.18969 9.93894 4.70557 9.70485 5.23656C9.4673 5.79107 9.27673 6.36444 9.13518 6.95071C9.01667 7.52068 8.96963 8.10318 8.99524 8.68474C9.00921 9.24086 9.14855 9.78671 9.40288 10.2818C9.65721 10.7769 10.0201 11.2086 10.4645 11.5449Z" fill="#D09F68"/>
<path d="M18.8598 10.9468C19.2496 10.6578 19.6095 10.3787 19.9293 10.0997C20.2491 9.82064 20.549 9.55156 20.7788 9.32237C21.0087 9.09318 21.2186 8.89383 21.3486 8.75431L21.5584 8.53509C21.1355 8.45001 20.7086 8.38685 20.2791 8.34571C19.8506 8.30398 19.4201 8.28733 18.9897 8.29592C18.4676 8.29222 17.946 8.33228 17.4306 8.41551C16.3537 8.54022 15.324 8.92697 14.4321 9.5416C14.0289 9.84488 13.6893 10.2241 13.4327 10.6578C13.2065 11.112 13.0998 11.6162 13.1228 12.1228C14.1092 12.5482 15.2164 12.6048 16.2412 12.2822C16.7218 12.1433 17.1846 11.9493 17.6205 11.7042C18.0521 11.4832 18.4665 11.23 18.8598 10.9468Z" fill="#D09F68"/>
<path d="M15.6685 6.40652C16.2565 6.40652 17.1741 6.46034 17.9207 5.94424C18.1232 5.79624 18.3167 5.63654 18.5003 5.46585C18.6926 5.29571 18.873 5.11254 19.0401 4.91773C19.401 4.52896 19.735 4.11606 20.0396 3.68197C20.6193 2.82496 21.119 1.93797 21.4788 1.27027C21.6587 0.941376 21.7844 0.652525 21.8843 0.453242L21.952 0.282999L21.9885 0.164062L21.5229 0.196712C21.2129 0.237548 21.0317 0.264779 20.7292 0.343466C19.7743 0.585138 18.8541 0.946809 17.9906 1.41976C16.9931 1.93445 16.1305 2.67511 15.472 3.58233C15.1664 4.01338 14.9615 4.50711 14.8723 5.02741C14.7728 5.46364 14.7756 5.90151 14.8723 6.35284" fill="#D09F68"/>
<path d="M51.3944 63.3874C51.855 63.0274 52.3671 62.7384 52.9136 62.5301C53.425 62.3504 53.9609 62.2495 54.5028 62.231C55.6768 62.2178 56.8471 62.3653 57.9809 62.6698C59.1403 62.9587 60.2498 63.2972 61.0693 63.5766C61.8889 63.8554 62.4286 64.065 62.4286 64.065C62.4286 64.065 61.8989 64.3641 61.0593 64.7229C60.008 65.1778 58.9082 65.5122 57.781 65.7193C56.5071 65.9689 55.1939 65.9384 53.933 65.6298C53.352 65.5056 52.8129 65.2339 52.3682 64.8411C51.9233 64.4483 51.5879 63.9474 51.3944 63.3874Z" fill="#D09F68"/>
<path d="M54.933 58.2644C54.5017 59.2996 53.8139 60.2082 52.9341 60.9056C52.5171 61.2291 52.0318 61.4542 51.5148 61.5635C50.982 61.6721 50.4287 61.6202 49.9257 61.4136C49.891 60.3575 50.1766 59.3157 50.7453 58.4244C51.2882 57.5963 51.9635 56.862 52.7442 56.2518C53.4224 55.7074 54.1334 55.2047 54.8731 54.7468C55.4628 54.3778 55.8725 54.1688 55.8725 54.1688C55.8725 54.1688 55.8725 54.2984 55.8725 54.5277C55.8725 54.7569 55.8126 55.0656 55.7426 55.4644C55.5882 56.4274 55.3164 57.3677 54.933 58.2644Z" fill="#D09F68"/>
<path d="M63.2688 60.9557C62.7041 60.9492 62.1482 60.8136 61.644 60.5599C61.1399 60.3056 60.7008 59.9402 60.3603 59.4907C60.6262 59.0214 60.9847 58.6106 61.4141 58.2835C61.8436 57.9563 62.3352 57.7193 62.859 57.5868C63.9901 57.2853 65.1563 57.1342 66.3273 57.1384C67.5166 57.1384 68.706 57.1384 69.5955 57.1384H71.0848C71.0848 57.1384 70.9748 57.268 70.7749 57.4674C70.575 57.6668 70.2652 57.936 69.8854 58.2447C68.9713 58.9957 67.9635 59.6256 66.887 60.1181C65.7621 60.6727 64.5236 60.9593 63.2688 60.9557Z" fill="#D09F68"/>
<path d="M61.0095 56.4011C60.6996 56.8262 60.2894 57.1688 59.8153 57.3981C59.3411 57.628 58.8176 57.7372 58.291 57.7169C57.875 56.7157 57.8501 55.5957 58.221 54.5778C58.576 53.6423 59.075 52.7683 59.7002 51.9868C60.2699 51.2094 60.8496 50.5414 61.2694 50.0733C61.4793 49.8238 61.6592 49.6345 61.7792 49.505L61.969 49.3056C61.969 49.3056 61.969 49.4256 62.0689 49.6345C62.1443 49.9336 62.2044 50.2363 62.2489 50.5414C62.396 51.496 62.396 52.4674 62.2489 53.4214C62.0923 54.5026 61.6661 55.5271 61.0095 56.4011Z" fill="#D09F68"/>
<path d="M75.2625 48.0998C76.082 47.8407 76.6217 47.6912 76.6217 47.6912C76.6217 47.6912 76.5718 47.8307 76.4618 48.0599C76.3519 48.2891 76.182 48.5981 75.9721 48.9768C75.7622 49.3557 75.5023 49.7939 75.2025 50.2524C75.0525 50.4817 74.8927 50.7109 74.7228 50.9497L74.5928 51.1294L74.4229 51.3485L74.0731 51.7874C73.2097 52.8721 72.0609 53.6972 70.7548 54.1688C70.2139 54.3677 69.6318 54.4291 69.0612 54.3474C68.4905 54.2656 67.9493 54.0435 67.4865 53.7008C67.7534 52.6357 68.3955 51.702 69.2956 51.0697C69.5054 50.9002 69.7453 50.7408 69.9852 50.5712L70.7448 50.093L71.5544 49.6244C71.8042 49.4853 72.0641 49.3557 72.324 49.2357C73.2768 48.792 74.2585 48.4124 75.2625 48.0998Z" fill="#D09F68"/>
<path d="M67.2061 50.1527C67.0703 50.6566 66.8011 51.1151 66.4265 51.4799C66.0519 51.8446 65.5859 52.102 65.0772 52.2255C64.4175 51.3909 64.0429 50.3676 64.0077 49.3055C63.9814 48.4214 64.0416 47.5369 64.1877 46.6646C64.2479 46.223 64.3414 45.7865 64.4675 45.359C64.5975 44.9205 64.7274 44.5219 64.8573 44.1931C64.9873 43.8642 65.0972 43.5851 65.1771 43.3957L65.2871 43.0968L65.497 43.3957C65.6269 43.5951 65.7869 43.8741 65.9667 44.2229C66.4312 45.1094 66.803 46.0411 67.0762 47.0034C67.1461 47.2725 67.2161 47.5515 67.276 47.8305C67.328 48.0939 67.3648 48.3602 67.386 48.6278C67.411 48.893 67.411 49.1599 67.386 49.4249C67.3491 49.6727 67.2888 49.9163 67.2061 50.1527Z" fill="#D09F68"/>
<path d="M76.5219 44.0134C76.3263 44.2398 76.1124 44.4499 75.8822 44.6412C75.6657 44.828 75.4352 44.9979 75.1926 45.1495C74.7393 45.4795 74.217 45.7029 73.6649 45.8031C73.1127 45.9032 72.545 45.8773 72.0042 45.7275C71.9096 45.1957 71.9438 44.6489 72.1041 44.133C72.1782 43.8886 72.2823 43.6543 72.414 43.4354C72.5443 43.208 72.6878 42.9884 72.8438 42.7776C73.5601 41.88 74.4256 41.1114 75.4025 40.5054C76.2626 39.9 77.157 39.3443 78.081 38.8411L79.3404 38.1634C79.3404 38.1634 79.3404 38.3129 79.2604 38.562C79.1804 38.8112 79.0905 39.16 78.9406 39.5586C78.6196 40.6082 78.1662 41.6128 77.5913 42.5484C77.2718 43.0625 76.9143 43.5522 76.5219 44.0134Z" fill="#D09F68"/>
<path d="M70.265 43.595C70.0407 44.0673 69.6961 44.4728 69.2655 44.771C68.3051 44.2343 67.5891 43.3491 67.2666 42.2995C67.1869 42.0547 67.1235 41.805 67.0767 41.552L67.0167 41.1733C67.0167 41.0537 67.0167 40.9242 66.9568 40.7946C66.8972 40.2853 66.8771 39.7722 66.8968 39.2599C66.9302 38.3921 67.0137 37.527 67.1467 36.6688C67.2066 36.3299 67.2666 36.0509 67.3066 35.8615C67.3466 35.6722 67.3666 35.5626 67.3666 35.5626L67.6164 35.8117C67.839 36.0325 68.0492 36.2654 68.2461 36.5093C68.8661 37.2667 69.4023 38.0886 69.8452 38.9609C70.3333 39.9441 70.5962 41.0232 70.6149 42.1201C70.6124 42.3789 70.5789 42.6365 70.5149 42.8874C70.4584 43.1319 70.3746 43.3692 70.265 43.595Z" fill="#D09F68"/>
<path d="M78.5406 34.546C78.4006 34.8106 78.2402 35.0638 78.0608 35.3034C77.88 35.5362 77.6829 35.756 77.4711 35.9612C77.0886 36.3629 76.6208 36.6743 76.102 36.8726C75.5832 37.0709 75.0265 37.1511 74.4727 37.1072C74.2743 36.6075 74.2022 36.0668 74.2628 35.5327C74.2934 35.2783 74.3503 35.0278 74.4327 34.7852C74.4967 34.5333 74.5803 34.2868 74.6826 34.0477C74.9233 33.5433 75.2218 33.0685 75.5721 32.6326L76.1118 31.9549C76.2917 31.7257 76.4916 31.5065 76.6815 31.2872C77.4711 30.4302 78.3306 29.6329 78.9403 29.0449C79.55 28.4569 79.9998 28.0682 79.9998 28.0682C79.9998 28.0682 79.9998 28.6662 79.9998 29.5631C79.9531 30.0782 79.8798 30.5904 79.7799 31.0979C79.7199 31.3769 79.66 31.6659 79.59 31.9549C79.5253 32.2522 79.4418 32.5451 79.3401 32.8319C79.1136 33.421 78.8464 33.9937 78.5406 34.546Z" fill="#D09F68"/>
<path d="M71.5941 36.4595C70.5703 36.1171 69.7114 35.4065 69.1853 34.4663C69.0574 34.2496 68.9472 34.0229 68.8555 33.7886C68.7411 33.5591 68.641 33.3228 68.5556 33.0811C68.3983 32.6162 68.278 32.1396 68.1958 31.6559C68.1059 31.1875 68.006 30.7291 67.956 30.3106C67.956 30.0913 67.956 29.892 67.896 29.7026C67.836 29.5133 67.896 29.3339 67.896 29.1645C67.8409 28.8014 67.8076 28.4353 67.796 28.0682C67.796 28.0682 68.2358 28.3174 68.8655 28.7659L69.3752 29.1445C69.5551 29.294 69.735 29.4435 69.9149 29.613C70.3052 29.9613 70.6694 30.3376 71.0043 30.7391C71.1743 30.9484 71.3442 31.1676 71.5041 31.3968L71.724 31.7456L71.9139 32.1144C72.152 32.5913 72.3267 33.0972 72.4336 33.6192C72.4893 33.8712 72.5161 34.1286 72.5136 34.3866C72.4988 34.6358 72.4586 34.8829 72.3937 35.1241C72.25 35.6317 71.9741 36.0924 71.5941 36.4595Z" fill="#D09F68"/>
<path d="M75.7515 22.0888C76.0214 21.5706 76.3112 21.0922 76.591 20.6039L77.3606 19.3581C77.8104 18.6306 78.1402 18.1623 78.1402 18.1623C78.1402 18.1623 78.3101 18.7303 78.4901 19.6073C78.55 20.0557 78.62 20.6039 78.66 21.152C78.66 21.431 78.66 21.73 78.66 22.029C78.66 22.3279 78.66 22.6369 78.66 22.9458C78.6113 23.5643 78.511 24.1777 78.3601 24.7796C78.2029 25.3568 77.9675 25.91 77.6605 26.4239C77.3845 26.904 77.001 27.3139 76.5397 27.6217C76.0786 27.9294 75.5522 28.1266 75.0019 28.1978C74.8522 27.9711 74.7313 27.7267 74.6421 27.4703C74.5476 27.2294 74.4806 26.9787 74.4422 26.7229C74.3655 26.2116 74.3892 25.6904 74.5121 25.1882C74.6266 24.6494 74.7905 24.1223 75.0019 23.6135C75.2218 23.0854 75.4916 22.5472 75.7515 22.0888Z" fill="#D09F68"/>
<path d="M69.285 26.5933C68.9313 26.2477 68.6224 25.8593 68.3655 25.4373C68.0848 25.0415 67.8405 24.6212 67.6359 24.1816C67.5259 23.9723 67.446 23.763 67.346 23.5637L67.0861 22.9658C66.9262 22.5771 66.8063 22.2183 66.6964 21.9093C66.4664 21.3015 66.3565 20.9128 66.3565 20.9128C66.773 21.0203 67.1834 21.15 67.5859 21.3015C68.4857 21.6386 69.3361 22.0945 70.1146 22.6568C70.342 22.812 70.559 22.9817 70.7642 23.165C70.9641 23.3477 71.1542 23.5406 71.3339 23.7431C71.6926 24.1438 71.9921 24.5935 72.2235 25.0785C72.4281 25.5364 72.5337 26.0322 72.5333 26.5335C72.5401 26.7831 72.5064 27.0322 72.4334 27.271C72.3512 27.5267 72.237 27.7711 72.0935 27.9985C71.0211 27.8727 70.0271 27.3754 69.285 26.5933Z" fill="#D09F68"/>
<path d="M72.7938 18.8799C72.6378 18.677 72.5068 18.4562 72.404 18.2221C72.3053 17.9914 72.2316 17.7509 72.1841 17.5046C72.1841 17.2554 72.1142 16.9963 72.0842 16.7372C72.0519 16.1941 72.0821 15.649 72.1741 15.1127C72.2503 14.5387 72.3604 13.9696 72.504 13.4086C72.7938 12.2725 73.1036 11.2062 73.3935 10.4188C73.6833 9.63155 73.8633 9.03358 73.8633 9.03358C73.8633 9.03358 73.9432 9.1632 74.0631 9.38242C74.1831 9.60164 74.343 9.94051 74.5329 10.379C74.9855 11.3803 75.3208 12.4304 75.5324 13.5083C75.6316 14.1048 75.6884 14.7076 75.7023 15.3121C75.6989 15.6123 75.6755 15.9119 75.6323 16.209C75.5855 16.4948 75.5221 16.7776 75.4424 17.0561C75.2972 17.587 75.038 18.08 74.6829 18.5012C74.3195 18.9404 73.8524 19.2829 73.3235 19.4977C73.1196 19.3167 72.9414 19.1089 72.7938 18.8799Z" fill="#D09F68"/>
<path d="M63.3183 14.5547C63.2084 14.3952 63.1584 14.3056 63.1584 14.3056H63.5082C63.7481 14.3056 64.0579 14.3056 64.4377 14.3853C64.8175 14.465 65.2673 14.5049 65.747 14.6145C65.9869 14.6644 66.2368 14.7341 66.4867 14.8038C66.7365 14.8736 66.9764 14.9733 67.2262 15.073C67.7376 15.2663 68.2268 15.5136 68.6855 15.8104C69.1236 16.0898 69.5234 16.4248 69.8749 16.807C70.0366 16.9989 70.1742 17.2097 70.2847 17.4348C70.393 17.6553 70.48 17.8856 70.5445 18.1225C70.6128 18.3623 70.6464 18.6106 70.6445 18.86C70.6227 19.1269 70.5724 19.3909 70.4945 19.6472C69.95 19.7529 69.39 19.7529 68.8454 19.6472C68.3483 19.5336 67.8703 19.349 67.4262 19.0991C67.2163 18.9696 67.0064 18.84 66.8065 18.6905L66.5267 18.4613L66.2368 18.2222C65.8756 17.9192 65.5412 17.5857 65.2373 17.2256C64.9373 16.9108 64.6569 16.578 64.3978 16.229L64.2178 15.9699L64.0479 15.7407C63.928 15.5812 63.828 15.4317 63.7381 15.3022C63.6482 15.1726 63.4083 14.7241 63.3183 14.5547Z" fill="#D09F68"/>
<path d="M69.5353 11.5449C69.0629 11.3149 68.6545 10.9727 68.3459 10.5483C68.0366 10.1442 67.8091 9.68384 67.6763 9.19298C67.1325 7.09957 67.2764 4.87521 67.4664 2.7451C67.5564 1.91793 67.6463 1.35984 67.6463 1.35984C68.0507 1.67347 68.3567 2.03753 68.6558 2.45608C68.9588 2.8519 69.2391 3.26444 69.4953 3.69184C69.7938 4.18969 70.0608 4.70557 70.2949 5.23656C70.5325 5.79107 70.723 6.36444 70.8646 6.95071C70.9831 7.52068 71.0301 8.10318 71.0045 8.68474C70.9906 9.24086 70.8512 9.78671 70.5969 10.2818C70.3426 10.7769 69.9797 11.2086 69.5353 11.5449Z" fill="#D09F68"/>
<path d="M61.1399 10.9468C60.7501 10.6578 60.3903 10.3787 60.0705 10.0997C59.7507 9.82064 59.4508 9.55156 59.2209 9.32237C58.991 9.09318 58.7812 8.89383 58.6512 8.75431L58.4414 8.53509C58.8642 8.45001 59.2912 8.38685 59.7206 8.34571C60.1491 8.30398 60.5796 8.28733 61.01 8.29592C61.5322 8.29222 62.0537 8.33228 62.5692 8.41551C63.6461 8.54022 64.6758 8.92697 65.5676 9.5416C65.9709 9.84488 66.3104 10.2241 66.5671 10.6578C66.7933 11.112 66.8999 11.6162 66.8769 12.1228C65.8906 12.5482 64.7834 12.6048 63.7586 12.2822C63.278 12.1433 62.8152 11.9493 62.3793 11.7042C61.9476 11.4832 61.5333 11.23 61.1399 10.9468Z" fill="#D09F68"/>
<path d="M64.3313 6.40652C63.7433 6.40652 62.8257 6.46034 62.0791 5.94424C61.8766 5.79624 61.6831 5.63654 61.4994 5.46585C61.3071 5.29571 61.1268 5.11254 60.9597 4.91773C60.5988 4.52896 60.2648 4.11606 59.9602 3.68197C59.3805 2.82496 58.8807 1.93797 58.521 1.27027C58.341 0.941376 58.2154 0.652525 58.1154 0.453242L58.0478 0.282999L58.0112 0.164062L58.4769 0.196712C58.7868 0.237548 58.9681 0.264779 59.2706 0.343466C60.2255 0.585138 61.1456 0.946809 62.0092 1.41976C63.0067 1.93445 63.8693 2.67511 64.5278 3.58233C64.8333 4.01338 65.0382 4.50711 65.1275 5.02741C65.227 5.46364 65.2242 5.90151 65.1275 6.35284" fill="#D09F68"/>
</svg>
