<svg width="48" height="48" viewBox="0 0 48 48" fill="none" xmlns="http://www.w3.org/2000/svg">
<g clip-path="url(#clip0_258_2181)">
<path d="M24 28C27.3137 28 30 25.3137 30 22C30 18.6863 27.3137 16 24 16C20.6863 16 18 18.6863 18 22C18 25.3137 20.6863 28 24 28Z" stroke="#D09F68" stroke-width="3" stroke-linecap="round" stroke-linejoin="round"/>
<path d="M35.314 33.3139L26.828 41.7999C26.078 42.5492 25.0612 42.97 24.001 42.97C22.9408 42.97 21.924 42.5492 21.174 41.7999L12.686 33.3139C10.4484 31.0762 8.92468 28.2253 8.30738 25.1216C7.69009 22.018 8.00699 18.8009 9.21801 15.8774C10.429 12.9538 12.4798 10.455 15.111 8.69692C17.7421 6.93885 20.8355 6.00049 24 6.00049C27.1645 6.00049 30.2579 6.93885 32.889 8.69692C35.5202 10.455 37.571 12.9538 38.782 15.8774C39.993 18.8009 40.3099 22.018 39.6926 25.1216C39.0753 28.2253 37.5516 31.0762 35.314 33.3139V33.3139Z" stroke="#D09F68" stroke-width="3" stroke-linecap="round" stroke-linejoin="round"/>
</g>
<defs>
<clipPath id="clip0_258_2181">
<rect width="48" height="48" fill="white"/>
</clipPath>
</defs>
</svg>
