<svg width="17" height="17" viewBox="0 0 17 17" fill="none" xmlns="http://www.w3.org/2000/svg">
<path d="M12.25 1H4.75C2.67893 1 1 2.67893 1 4.75V12.25C1 14.3211 2.67893 16 4.75 16H12.25C14.3211 16 16 14.3211 16 12.25V4.75C16 2.67893 14.3211 1 12.25 1Z" stroke="#A4A4A4" stroke-width="1.4" stroke-linecap="round" stroke-linejoin="round"/>
<path d="M8.5 11.3125C10.0533 11.3125 11.3125 10.0533 11.3125 8.5C11.3125 6.9467 10.0533 5.6875 8.5 5.6875C6.9467 5.6875 5.6875 6.9467 5.6875 8.5C5.6875 10.0533 6.9467 11.3125 8.5 11.3125Z" stroke="#A4A4A4" stroke-width="1.4" stroke-linecap="round" stroke-linejoin="round"/>
<path d="M12.7188 4.28125V4.28225" stroke="#A4A4A4" stroke-width="1.4" stroke-linecap="round" stroke-linejoin="round"/>
</svg>
