<svg width="17" height="17" viewBox="0 0 17 17" fill="none" xmlns="http://www.w3.org/2000/svg">
<path d="M1 15.9795L2.37441 12.8142C1.32291 11.3216 0.852286 9.4965 1.05085 7.6815C1.24941 5.86651 2.10352 4.18636 3.45288 2.95637C4.80223 1.72638 6.55409 1.0311 8.37967 1.00102C10.2052 0.970936 11.9791 1.60812 13.3682 2.79298C14.7574 3.97785 15.6664 5.62894 15.9246 7.43641C16.1829 9.24388 15.7726 11.0835 14.7709 12.61C13.7691 14.1364 12.2447 15.2449 10.4838 15.7272C8.72282 16.2096 6.84636 16.0328 5.20654 15.2299L1 15.9795" stroke="#A4A4A4" stroke-width="1.4" stroke-linecap="round" stroke-linejoin="round"/>
<path d="M5.99786 6.81685C5.99786 6.92731 6.04174 7.03324 6.11985 7.11135C6.19796 7.18946 6.30389 7.23334 6.41435 7.23334C6.52481 7.23334 6.63075 7.18946 6.70885 7.11135C6.78696 7.03324 6.83084 6.92731 6.83084 6.81685V5.98387C6.83084 5.87341 6.78696 5.76748 6.70885 5.68937C6.63075 5.61126 6.52481 5.56738 6.41435 5.56738C6.30389 5.56738 6.19796 5.61126 6.11985 5.68937C6.04174 5.76748 5.99786 5.87341 5.99786 5.98387V6.81685ZM5.99786 6.81685C5.99786 7.92145 6.43666 8.9808 7.21773 9.76187C7.9988 10.5429 9.05815 10.9817 10.1628 10.9817H10.9957C11.1062 10.9817 11.2121 10.9379 11.2902 10.8598C11.3683 10.7816 11.4122 10.6757 11.4122 10.5652C11.4122 10.4548 11.3683 10.3489 11.2902 10.2707C11.2121 10.1926 11.1062 10.1488 10.9957 10.1488H10.1628C10.0523 10.1488 9.94636 10.1926 9.86825 10.2707C9.79014 10.3489 9.74626 10.4548 9.74626 10.5652C9.74626 10.6757 9.79014 10.7816 9.86825 10.8598C9.94636 10.9379 10.0523 10.9817 10.1628 10.9817" stroke="#A4A4A4" stroke-width="1.4" stroke-linecap="round" stroke-linejoin="round"/>
</svg>
