<svg width="60" height="60" viewBox="0 0 60 60" fill="none" xmlns="http://www.w3.org/2000/svg">
<path fill-rule="evenodd" clip-rule="evenodd" d="M60 0H0V60H60V0ZM56.8525 3.08194H3.08203V56.918H56.8525V3.08194Z" fill="black"/>
<path d="M40.8269 52.5245H39.2516C39.1696 52.5245 39.1287 52.4887 39.1287 52.4169L39.1133 41.6972C39.1133 41.6152 39.1543 41.5742 39.2362 41.5742H40.6579L43.3167 47.7756L43.2398 41.6972C43.2398 41.6152 43.2859 41.5742 43.3781 41.5742H44.9381C44.9996 41.5742 45.0303 41.6152 45.0303 41.6972L45.0457 52.4323C45.0457 52.4938 45.02 52.5245 44.9688 52.5245H43.5856L40.8576 46.7305L40.9729 52.4016C40.9729 52.4835 40.9242 52.5245 40.8269 52.5245Z" fill="black"/>
<path d="M34.9098 52.6782C34.3412 52.6782 33.8289 52.5373 33.373 52.2556C32.9119 51.9738 32.5405 51.5947 32.2587 51.1183C31.9821 50.6418 31.8438 50.109 31.8438 49.5199V44.5327C31.8438 43.9589 31.9846 43.4364 32.2664 42.9651C32.543 42.4886 32.9144 42.1096 33.3806 41.8278C33.8468 41.5409 34.3566 41.3975 34.9098 41.3975C35.4887 41.3975 36.0113 41.5358 36.4775 41.8124C36.9436 42.0942 37.3125 42.4707 37.584 42.942C37.8607 43.4133 37.999 43.9436 37.999 44.5327V45.255C37.999 45.296 37.9734 45.3165 37.9221 45.3165H36.1547C36.1137 45.3165 36.0932 45.296 36.0932 45.255V44.6557C36.0932 44.2561 35.9805 43.9256 35.7551 43.6644C35.5297 43.4031 35.248 43.2725 34.9098 43.2725C34.6076 43.2725 34.3386 43.398 34.103 43.649C33.8673 43.9 33.7495 44.1946 33.7495 44.5327V49.5199C33.7495 49.8631 33.8648 50.1603 34.0953 50.4113C34.3258 50.6572 34.5973 50.7801 34.9098 50.7801C35.248 50.7801 35.5297 50.6598 35.7551 50.419C35.9805 50.1731 36.0932 49.8734 36.0932 49.5199V48.7438H34.9944C34.938 48.7438 34.9098 48.7182 34.9098 48.6669V46.9072C34.9098 46.856 34.938 46.8304 34.9944 46.8304H37.9375C37.9785 46.8304 37.999 46.856 37.999 46.9072V49.5199C37.999 50.109 37.8607 50.6418 37.584 51.1183C37.3023 51.5947 36.9308 51.9738 36.4698 52.2556C36.0087 52.5373 35.4887 52.6782 34.9098 52.6782Z" fill="black"/>
<path d="M30.5823 52.5245H28.7995C28.7483 52.5245 28.7227 52.4989 28.7227 52.4477L28.738 41.6357C28.738 41.5947 28.7585 41.5742 28.7995 41.5742H30.5669C30.6079 41.5742 30.6284 41.5947 30.6284 41.6357L30.6438 52.4477C30.6438 52.4989 30.6233 52.5245 30.5823 52.5245Z" fill="black"/>
<path d="M24.5424 52.6785C23.984 52.6785 23.4691 52.535 22.9978 52.2481C22.5316 51.9612 22.1577 51.5796 21.8759 51.1031C21.5993 50.6216 21.4609 50.0939 21.4609 49.5202V48.7978C21.4609 48.7415 21.4866 48.7133 21.5378 48.7133H23.3052C23.3462 48.7133 23.3667 48.7415 23.3667 48.7978V49.5202C23.3667 49.8634 23.4819 50.1605 23.7125 50.4115C23.943 50.6574 24.2196 50.7804 24.5424 50.7804C24.8703 50.7804 25.1495 50.6549 25.38 50.4039C25.6105 50.1477 25.7258 49.8531 25.7258 49.5202C25.7258 49.1359 25.4748 48.8004 24.9727 48.5135C24.8908 48.4623 24.7832 48.4008 24.65 48.3291C24.5219 48.2522 24.3682 48.1651 24.1889 48.0678C24.0096 47.9705 23.8354 47.8757 23.6664 47.7835C23.4973 47.6861 23.3334 47.5939 23.1746 47.5068C22.6008 47.1687 22.173 46.7461 21.8913 46.2389C21.6146 45.7266 21.4763 45.1528 21.4763 44.5176C21.4763 43.9336 21.6197 43.4059 21.9066 42.9346C22.1935 42.4684 22.5675 42.0996 23.0286 41.828C23.4947 41.5514 23.9994 41.4131 24.5424 41.4131C25.1008 41.4131 25.6131 41.5514 26.0793 41.828C26.5455 42.1098 26.9169 42.4838 27.1935 42.95C27.4753 43.4162 27.6162 43.9387 27.6162 44.5176V45.8086C27.6162 45.8496 27.5957 45.8701 27.5547 45.8701H25.7873C25.7463 45.8701 25.7258 45.8496 25.7258 45.8086L25.7104 44.5176C25.7104 44.1487 25.5952 43.849 25.3646 43.6185C25.1341 43.388 24.86 43.2727 24.5424 43.2727C24.2196 43.2727 23.943 43.3957 23.7125 43.6416C23.4819 43.8875 23.3667 44.1795 23.3667 44.5176C23.3667 44.8608 23.4384 45.1477 23.5818 45.3782C23.7304 45.6088 23.9994 45.8291 24.3887 46.0391C24.4297 46.0596 24.5245 46.1108 24.673 46.1928C24.8216 46.2748 24.9855 46.367 25.1648 46.4694C25.3493 46.5668 25.5158 46.6564 25.6643 46.7384C25.8129 46.8152 25.9025 46.8613 25.9333 46.8767C26.4558 47.1687 26.8682 47.5273 27.1705 47.9525C27.4778 48.3777 27.6315 48.9003 27.6315 49.5202C27.6315 50.1195 27.4932 50.6574 27.2166 51.1339C26.9348 51.6103 26.5608 51.9869 26.0946 52.2635C25.6285 52.5401 25.111 52.6785 24.5424 52.6785Z" fill="black"/>
<path d="M20.4103 52.5245H15.3232C15.2822 52.5245 15.2617 52.4989 15.2617 52.4477L15.2771 41.6357C15.2771 41.5947 15.2976 41.5742 15.3386 41.5742H20.3949C20.4359 41.5742 20.4564 41.5998 20.4564 41.6511V43.4108C20.4564 43.4518 20.4359 43.4723 20.3949 43.4723H17.1675V45.9313H20.3949C20.4359 45.9313 20.4564 45.9518 20.4564 45.9928L20.4718 47.7756C20.4718 47.8165 20.4513 47.837 20.4103 47.837H17.1675V50.5881H20.4103C20.4513 50.5881 20.4718 50.6137 20.4718 50.6649V52.4631C20.4718 52.504 20.4513 52.5245 20.4103 52.5245Z" fill="black"/>
<path d="M10.733 52.5094L7.91278 52.5247C7.86155 52.5247 7.83594 52.4991 7.83594 52.4479L7.86668 41.6359C7.86668 41.5949 7.88717 41.5744 7.92815 41.5744L10.8713 41.5591C11.4553 41.5437 11.983 41.6769 12.4543 41.9586C12.9307 42.2404 13.3098 42.6221 13.5916 43.1036C13.8785 43.5801 14.0219 44.1077 14.0219 44.6866V49.2051C14.0219 49.8096 13.8759 50.3628 13.5839 50.8649C13.2868 51.3618 12.8923 51.7589 12.4005 52.056C11.9087 52.348 11.3528 52.4991 10.733 52.5094ZM10.8713 43.4417L9.77241 43.4571L9.75704 50.5883H10.733C11.1223 50.5883 11.4502 50.4525 11.7166 50.181C11.983 49.9095 12.1162 49.5842 12.1162 49.2051V44.6712C12.1162 44.3383 11.9932 44.0488 11.7473 43.8029C11.5014 43.5519 11.2094 43.4315 10.8713 43.4417Z" fill="black"/>
<path d="M29.4458 39.41H27.6784C27.6272 39.41 27.6016 39.3844 27.6016 39.3332L27.6323 28.5212C27.6323 28.4802 27.6528 28.4597 27.6938 28.4597H30.7214C31.6846 28.4597 32.4453 28.7543 33.0037 29.3434C33.5672 29.9274 33.849 30.7241 33.849 31.7333C33.849 32.471 33.703 33.1139 33.411 33.6621C33.1139 34.2051 32.7296 34.6252 32.2583 34.9223C31.787 35.2195 31.2747 35.368 30.7214 35.368H29.5227V39.3332C29.5227 39.3844 29.4971 39.41 29.4458 39.41ZM30.7214 30.327L29.5227 30.3424V33.4623H30.7214C31.0544 33.4623 31.3439 33.3035 31.5898 32.9858C31.8357 32.6631 31.9586 32.2456 31.9586 31.7333C31.9586 31.3234 31.8485 30.9879 31.6282 30.7266C31.4079 30.4602 31.1057 30.327 30.7214 30.327Z" fill="black"/>
<path d="M26.1408 39.41H21.0537C21.0127 39.41 20.9922 39.3844 20.9922 39.3332L21.0076 28.5212C21.0076 28.4802 21.028 28.4597 21.069 28.4597H26.1254C26.1664 28.4597 26.1869 28.4853 26.1869 28.5366V30.2963C26.1869 30.3373 26.1664 30.3578 26.1254 30.3578H22.8979V32.8168H26.1254C26.1664 32.8168 26.1869 32.8373 26.1869 32.8783L26.2022 34.661C26.2022 34.702 26.1817 34.7225 26.1408 34.7225H22.8979V37.4735H26.1408C26.1817 37.4735 26.2022 37.4992 26.2022 37.5504V39.3485C26.2022 39.3895 26.1817 39.41 26.1408 39.41Z" fill="black"/>
<path d="M18.0491 39.41H16.274C16.2279 39.41 16.2049 39.3844 16.2049 39.3332V30.3578H14.1608C14.1096 30.3578 14.084 30.3322 14.084 30.2809L14.0994 28.5212C14.0994 28.4802 14.1198 28.4597 14.1608 28.4597H20.1393C20.1957 28.4597 20.2238 28.4802 20.2238 28.5212V30.2809C20.2238 30.3322 20.2033 30.3578 20.1624 30.3578H18.0953L18.1106 39.3332C18.1106 39.3844 18.0901 39.41 18.0491 39.41Z" fill="black"/>
<path d="M10.5111 39.5637C9.95274 39.5637 9.43788 39.4203 8.96657 39.1334C8.50038 38.8465 8.12641 38.4648 7.84465 37.9884C7.56801 37.5068 7.42969 36.9792 7.42969 36.4054V35.6831C7.42969 35.6267 7.4553 35.5985 7.50653 35.5985H9.27395C9.31493 35.5985 9.33543 35.6267 9.33543 35.6831V36.4054C9.33543 36.7486 9.45069 37.0458 9.68122 37.2968C9.91176 37.5427 10.1884 37.6657 10.5111 37.6657C10.839 37.6657 11.1182 37.5401 11.3487 37.2891C11.5793 37.033 11.6945 36.7384 11.6945 36.4054C11.6945 36.0212 11.4435 35.6856 10.9415 35.3987C10.8595 35.3475 10.7519 35.286 10.6187 35.2143C10.4907 35.1375 10.337 35.0504 10.1577 34.9531C9.97836 34.8557 9.80418 34.7609 9.63512 34.6687C9.46606 34.5714 9.30213 34.4792 9.14331 34.3921C8.56954 34.054 8.14178 33.6313 7.86002 33.1242C7.58338 32.6119 7.44506 32.0381 7.44506 31.4028C7.44506 30.8188 7.5885 30.2912 7.87538 29.8199C8.16227 29.3537 8.53624 28.9848 8.99731 28.7133C9.4635 28.4367 9.96811 28.2983 10.5111 28.2983C11.0695 28.2983 11.5818 28.4367 12.048 28.7133C12.5142 28.9951 12.8856 29.369 13.1623 29.8352C13.444 30.3014 13.5849 30.824 13.5849 31.4028V32.6938C13.5849 32.7348 13.5644 32.7553 13.5234 32.7553H11.756C11.715 32.7553 11.6945 32.7348 11.6945 32.6938L11.6792 31.4028C11.6792 31.034 11.5639 30.7343 11.3334 30.5038C11.1028 30.2732 10.8288 30.158 10.5111 30.158C10.1884 30.158 9.91176 30.2809 9.68122 30.5268C9.45069 30.7727 9.33543 31.0647 9.33543 31.4028C9.33543 31.7461 9.40715 32.033 9.55059 32.2635C9.69915 32.494 9.96811 32.7143 10.3575 32.9244C10.3984 32.9449 10.4932 32.9961 10.6418 33.0781C10.7903 33.16 10.9543 33.2522 11.1336 33.3547C11.318 33.452 11.4845 33.5417 11.6331 33.6236C11.7816 33.7005 11.8713 33.7466 11.902 33.762C12.4246 34.054 12.837 34.4126 13.1392 34.8378C13.4466 35.263 13.6003 35.7855 13.6003 36.4054C13.6003 37.0048 13.462 37.5427 13.1853 38.0191C12.9036 38.4956 12.5296 38.8721 12.0634 39.1487C11.5972 39.4254 11.0798 39.5637 10.5111 39.5637Z" fill="black"/>
</svg>
