<svg width="80" height="66" fill="none" xmlns="http://www.w3.org/2000/svg"><path d="M28.605 63.387a5.851 5.851 0 00-1.519-.857 5.344 5.344 0 00-1.589-.299 12.853 12.853 0 00-3.478.439 39.26 39.26 0 00-3.088.907c-.82.278-1.36.488-1.36.488s.53.3 1.37.658c1.05.455 2.15.79 3.278.996a8.95 8.95 0 003.848-.09 3.455 3.455 0 002.538-2.242zm-3.538-5.123a6.619 6.619 0 001.999 2.642c.417.323.902.548 1.419.657a2.742 2.742 0 001.59-.15 5.237 5.237 0 00-.82-2.989 9.07 9.07 0 00-2-2.172 21.368 21.368 0 00-2.128-1.505c-.59-.37-1-.578-1-.578v.359c0 .229.06.538.13.936.154.963.426 1.904.81 2.8zm-8.337 2.692a3.71 3.71 0 002.91-1.465 3.988 3.988 0 00-2.5-1.904 13.281 13.281 0 00-3.468-.449H8.915s.11.13.31.33c.2.199.51.468.89.777a13.72 13.72 0 002.998 1.873 8.129 8.129 0 003.618.838zm2.26-4.555a3.205 3.205 0 002.719 1.316 4.323 4.323 0 00.07-3.14 9.599 9.599 0 00-1.48-2.59 25.178 25.178 0 00-1.569-1.914c-.21-.25-.39-.438-.51-.568l-.19-.2s0 .12-.1.33a9.302 9.302 0 00-.18.906 9.447 9.447 0 000 2.88 6.516 6.516 0 001.24 2.98zM4.737 48.1c-.82-.26-1.359-.409-1.359-.409s.05.14.16.369c.11.23.28.538.49.917a20.508 20.508 0 001.249 1.973l.13.18.17.218.35.44a7.495 7.495 0 003.318 2.38 3.479 3.479 0 003.268-.467 4.575 4.575 0 00-1.809-2.631c-.21-.17-.45-.33-.69-.499l-.759-.478-.81-.469c-.25-.139-.51-.268-.77-.388A23.538 23.538 0 004.738 48.1zm8.057 2.053a2.91 2.91 0 002.129 2.072 4.974 4.974 0 001.069-2.92 13.54 13.54 0 00-.18-2.64 8.831 8.831 0 00-.28-1.306 14.47 14.47 0 00-.39-1.166c-.13-.329-.24-.608-.32-.797l-.11-.3-.21.3c-.13.2-.29.478-.469.827a14.563 14.563 0 00-1.11 2.78c-.07.27-.14.548-.2.828-.051.263-.088.53-.11.797a4.245 4.245 0 000 .797c.038.248.098.491.18.728zm-9.316-6.14c.195.227.41.437.64.628.216.187.447.357.69.509a3.726 3.726 0 003.188.578 3.379 3.379 0 00-.1-1.595 3.095 3.095 0 00-.31-.698 6.75 6.75 0 00-.43-.657 10.055 10.055 0 00-2.559-2.273 27.527 27.527 0 00-2.678-1.664l-1.26-.678s0 .15.08.399c.08.25.17.598.32.997.321 1.05.775 2.054 1.35 2.99.319.514.676 1.003 1.069 1.464zm6.257-.418c.224.472.569.878 1 1.176a4.268 4.268 0 001.998-2.471c.08-.245.143-.495.19-.748l.06-.379c0-.12 0-.249.06-.378.06-.51.08-1.023.06-1.535a22.592 22.592 0 00-.25-2.591c-.06-.34-.12-.618-.16-.807-.04-.19-.06-.3-.06-.3l-.25.25a8.49 8.49 0 00-.63.697c-.62.758-1.155 1.58-1.598 2.452a7.388 7.388 0 00-.77 3.16 3.2 3.2 0 00.1.766c.056.245.14.482.25.708zM1.46 34.546c.14.265.3.518.479.757.18.233.378.453.59.658a3.73 3.73 0 002.998 1.146c.198-.5.27-1.04.21-1.574a3.7 3.7 0 00-.17-.748 5.023 5.023 0 00-.25-.737 7.122 7.122 0 00-.89-1.415l-.54-.678c-.179-.23-.379-.448-.569-.668-.79-.857-1.649-1.654-2.259-2.242C.45 28.457 0 28.068 0 28.068v1.495c.047.515.12 1.027.22 1.535.06.279.12.568.19.857.065.297.148.59.25.877.226.589.493 1.162.8 1.714zm6.946 1.914a4.335 4.335 0 002.409-1.994c.127-.216.238-.443.33-.677.114-.23.214-.466.3-.708.156-.465.277-.941.359-1.425.09-.468.19-.927.24-1.345 0-.22 0-.419.06-.608.06-.19 0-.37 0-.538.055-.364.088-.73.1-1.097 0 0-.44.25-1.07.698l-.51.379c-.18.149-.36.299-.54.468-.39.348-.754.725-1.089 1.126-.17.21-.34.429-.5.658l-.22.349-.19.368a6.115 6.115 0 00-.519 1.505 3.42 3.42 0 00-.08.768c.015.249.055.496.12.737.144.508.42.968.8 1.335zM4.248 22.089c-.27-.518-.56-.997-.84-1.485l-.769-1.246c-.45-.727-.78-1.196-.78-1.196s-.17.568-.35 1.445c-.06.449-.13.997-.17 1.545v1.794c.05.618.15 1.232.3 1.834.158.577.393 1.13.7 1.644a3.592 3.592 0 002.659 1.774c.15-.227.27-.471.36-.728a3.45 3.45 0 00.2-.747 3.975 3.975 0 00-.07-1.535 8.952 8.952 0 00-.49-1.575c-.22-.528-.49-1.066-.75-1.524zm6.467 4.504c.353-.345.662-.734.92-1.156.28-.396.524-.816.729-1.255.11-.21.19-.419.29-.618l.26-.598c.16-.389.28-.748.39-1.057.23-.607.34-.996.34-.996-.417.107-.828.237-1.23.389-.9.337-1.75.793-2.529 1.355a6.345 6.345 0 00-1.22 1.086c-.358.4-.657.85-.889 1.335a3.56 3.56 0 00-.31 1.456c-.006.25.027.498.1.737.083.256.197.5.34.727a4.612 4.612 0 002.809-1.405zM7.206 18.88a3.172 3.172 0 00.61-1.375c0-.25.07-.509.1-.768a7.108 7.108 0 00-.09-1.624 14.63 14.63 0 00-.33-1.704c-.29-1.136-.6-2.203-.89-2.99-.29-.787-.47-1.385-.47-1.385s-.08.13-.2.348c-.12.22-.28.559-.47.997a14.272 14.272 0 00-.999 3.13 12.821 12.821 0 00-.17 1.803c.004.3.027.6.07.897.047.286.11.569.19.847.146.531.405 1.024.76 1.445.363.44.83.782 1.36.997.203-.181.381-.39.529-.618zm9.475-4.325c.11-.16.16-.25.16-.25h-.35c-.24 0-.55 0-.929.08-.38.08-.83.12-1.31.23-.24.05-.489.12-.739.189-.25.07-.49.17-.74.269a7.7 7.7 0 00-1.459.737c-.438.28-.838.615-1.19.997a3.18 3.18 0 00-.409.628 3.88 3.88 0 00-.26.688c-.068.24-.102.488-.1.737.022.267.072.53.15.787a4.328 4.328 0 001.65 0 5.304 5.304 0 001.419-.548c.21-.13.42-.259.62-.409l.28-.229.289-.239a8.224 8.224 0 001-.996c.3-.315.58-.648.839-.997l.18-.26.17-.228c.12-.16.22-.31.31-.439.09-.13.33-.578.42-.747zm-6.217-3.01a3.2 3.2 0 001.19-.997c.31-.404.537-.864.67-1.355.543-2.093.4-4.318.21-6.448-.09-.827-.18-1.385-.18-1.385-.405.313-.711.678-1.01 1.096-.303.396-.583.808-.84 1.236a13.953 13.953 0 00-.8 1.545 10.775 10.775 0 00-.569 1.714 7.004 7.004 0 00-.14 1.734 3.698 3.698 0 001.47 2.86zm8.396-.598a17.405 17.405 0 001.919-1.625c.23-.229.44-.428.57-.568l.21-.219c-.424-.085-.85-.148-1.28-.19a11.031 11.031 0 00-1.29-.05 9.364 9.364 0 00-1.558.12 6.628 6.628 0 00-2.999 1.127 3.85 3.85 0 00-1 1.116 2.983 2.983 0 00-.31 1.465 4.48 4.48 0 003.12.16 6.54 6.54 0 001.378-.579 9.64 9.64 0 001.24-.757zm-3.192-4.54c.588 0 1.506.053 2.253-.463a6.38 6.38 0 00.58-.478 5.6 5.6 0 00.54-.548c.36-.389.694-.802.999-1.236a28.415 28.415 0 001.439-2.412c.18-.329.305-.617.405-.817l.068-.17.036-.119-.465.033a5.63 5.63 0 00-.794.146c-.955.242-1.875.604-2.738 1.077a7.18 7.18 0 00-2.519 2.162 3.53 3.53 0 00-.6 1.445c-.1.437-.096.875 0 1.326m36.522 57.034c.461-.36.973-.649 1.52-.857a5.344 5.344 0 011.589-.299 12.853 12.853 0 013.478.439 39.26 39.26 0 013.088.907c.82.278 1.36.488 1.36.488s-.53.3-1.37.658a15.06 15.06 0 01-3.278.996 8.95 8.95 0 01-3.848-.09 3.455 3.455 0 01-2.539-2.242zm3.539-5.123a6.619 6.619 0 01-1.999 2.642 3.495 3.495 0 01-1.42.657 2.742 2.742 0 01-1.588-.15 5.237 5.237 0 01.82-2.989 9.068 9.068 0 011.998-2.172 21.368 21.368 0 012.13-1.505c.589-.37.998-.578.998-.578v.359c0 .229-.06.538-.13.936a11.923 11.923 0 01-.809 2.8zm8.336 2.692a3.71 3.71 0 01-2.909-1.465 3.99 3.99 0 012.499-1.904 13.281 13.281 0 013.468-.449h4.758s-.11.13-.31.33c-.2.199-.51.468-.89.777a13.706 13.706 0 01-2.998 1.873 8.13 8.13 0 01-3.618.838zm-2.259-4.555a3.205 3.205 0 01-2.719 1.316 4.323 4.323 0 01-.07-3.14 9.599 9.599 0 011.48-2.59 25.2 25.2 0 011.568-1.914c.21-.25.39-.438.51-.568l.19-.2s0 .12.1.33c.075.299.135.601.18.906a9.453 9.453 0 010 2.88 6.516 6.516 0 01-1.24 2.98zM75.263 48.1c.819-.26 1.359-.409 1.359-.409s-.05.14-.16.369c-.11.23-.28.538-.49.917a20.571 20.571 0 01-1.25 1.973l-.13.18-.17.218-.349.44a7.495 7.495 0 01-3.318 2.38 3.479 3.479 0 01-3.268-.467 4.575 4.575 0 011.809-2.631c.21-.17.45-.33.69-.499l.759-.478.81-.469c.25-.139.51-.268.769-.388a23.533 23.533 0 012.939-1.136zm-8.057 2.053a2.91 2.91 0 01-2.129 2.072 4.974 4.974 0 01-1.07-2.92c-.026-.884.035-1.768.18-2.64a8.8 8.8 0 01.28-1.306c.13-.439.26-.837.39-1.166.13-.329.24-.608.32-.797l.11-.3.21.3c.13.2.29.478.47.827.464.886.836 1.818 1.11 2.78.07.27.14.548.199.828.052.263.089.53.11.797.025.265.025.532 0 .797a3.978 3.978 0 01-.18.728zm9.316-6.14c-.196.227-.41.437-.64.628a5.591 5.591 0 01-.69.509 3.726 3.726 0 01-3.188.578 3.38 3.38 0 01.1-1.595 3.09 3.09 0 01.31-.698c.13-.227.274-.447.43-.657a10.054 10.054 0 012.559-2.273 27.524 27.524 0 012.678-1.664l1.26-.678s0 .15-.08.399c-.08.25-.17.598-.32.997a12.939 12.939 0 01-1.35 2.99c-.32.514-.677 1.003-1.07 1.464zm-6.257-.418a2.992 2.992 0 01-1 1.176 4.268 4.268 0 01-1.998-2.471 5.854 5.854 0 01-.19-.748l-.06-.379c0-.12 0-.249-.06-.378a9.923 9.923 0 01-.06-1.535c.033-.868.117-1.733.25-2.591.06-.34.12-.618.16-.807.04-.19.06-.3.06-.3l.25.25c.222.22.432.453.63.697.62.758 1.155 1.58 1.598 2.452.488.983.751 2.062.77 3.16a3.23 3.23 0 01-.1.766c-.057.245-.14.482-.25.708zm8.275-9.049c-.14.265-.3.518-.48.757-.18.233-.377.453-.589.658a3.729 3.729 0 01-2.998 1.146c-.199-.5-.27-1.04-.21-1.574a3.62 3.62 0 01.17-.748c.064-.252.147-.498.25-.737.24-.505.539-.98.89-1.415l.539-.678c.18-.23.38-.448.57-.668.79-.857 1.649-1.654 2.258-2.242a29.47 29.47 0 011.06-.977v1.495c-.047.515-.12 1.027-.22 1.535-.06.279-.12.568-.19.857a7.24 7.24 0 01-.25.877 13.547 13.547 0 01-.8 1.714zm-6.946 1.914a4.335 4.335 0 01-2.409-1.994 4.712 4.712 0 01-.33-.677 6.262 6.262 0 01-.3-.708 9.318 9.318 0 01-.36-1.425c-.09-.468-.189-.927-.239-1.345 0-.22 0-.419-.06-.608-.06-.19 0-.37 0-.538a9.256 9.256 0 01-.1-1.097s.44.25 1.07.698l.51.379c.18.149.359.299.539.468.39.348.754.725 1.09 1.126.17.21.34.429.5.658l.219.349.19.368c.238.477.413.983.52 1.505.055.252.082.51.08.768a3.68 3.68 0 01-.12.737c-.144.508-.42.968-.8 1.335zm4.157-14.371c.27-.518.56-.997.84-1.485l.77-1.246c.45-.727.78-1.196.78-1.196s.17.568.35 1.445c.059.449.129.997.169 1.545v1.794a11.135 11.135 0 01-.3 1.834 6.576 6.576 0 01-.7 1.644 3.592 3.592 0 01-2.658 1.774 3.27 3.27 0 01-.36-.728 3.448 3.448 0 01-.2-.747 3.975 3.975 0 01.07-1.535 8.956 8.956 0 01.49-1.575c.22-.528.49-1.066.75-1.524zm-6.466 4.504a5.92 5.92 0 01-.92-1.156 8.023 8.023 0 01-.73-1.255c-.11-.21-.189-.419-.289-.618l-.26-.598c-.16-.389-.28-.748-.39-1.057-.23-.607-.34-.996-.34-.996.417.107.827.237 1.23.389.9.337 1.75.793 2.529 1.355a6.339 6.339 0 011.219 1.086c.359.4.658.85.89 1.335.204.458.31.954.31 1.456.006.25-.028.498-.1.737-.083.256-.197.5-.34.727a4.612 4.612 0 01-2.809-1.405zm3.509-7.713a3.171 3.171 0 01-.61-1.375c0-.25-.07-.509-.1-.768a7.111 7.111 0 01.09-1.624c.076-.574.186-1.143.33-1.704.29-1.136.6-2.203.89-2.99.29-.787.47-1.385.47-1.385s.08.13.2.348c.12.22.279.559.469.997a14.272 14.272 0 011 3.13c.099.596.155 1.199.17 1.803-.004.3-.028.6-.07.897a7.46 7.46 0 01-.19.847 3.795 3.795 0 01-.76 1.445c-.364.44-.83.782-1.36.997a2.998 2.998 0 01-.53-.618zm-9.476-4.325c-.11-.16-.16-.25-.16-.25h.35c.24 0 .55 0 .93.08s.83.12 1.309.23c.24.05.49.12.74.189.25.07.49.17.74.269.51.193 1 .44 1.459.737.438.28.837.615 1.189.997.162.192.3.403.41.628.108.22.195.45.26.688.068.24.101.488.1.737a3.76 3.76 0 01-.15.787 4.328 4.328 0 01-1.65 0 5.303 5.303 0 01-1.419-.548c-.21-.13-.42-.259-.62-.409l-.28-.229-.29-.239a8.224 8.224 0 01-.999-.996c-.3-.315-.58-.648-.84-.997l-.18-.26-.17-.228c-.119-.16-.219-.31-.309-.439a12.8 12.8 0 01-.42-.747zm6.217-3.01a3.205 3.205 0 01-1.19-.997 3.91 3.91 0 01-.669-1.355c-.544-2.093-.4-4.318-.21-6.448.09-.827.18-1.385.18-1.385.405.313.71.678 1.01 1.096.303.396.583.808.84 1.236.298.498.565 1.014.799 1.545.237.554.428 1.127.57 1.714.118.57.165 1.152.14 1.734a3.698 3.698 0 01-1.47 2.86zm-8.395-.598a17.401 17.401 0 01-1.92-1.625c-.229-.229-.439-.428-.569-.568l-.21-.219c.423-.085.85-.148 1.28-.19a11.32 11.32 0 011.289-.05 9.366 9.366 0 011.56.12 6.627 6.627 0 012.998 1.127 3.85 3.85 0 011 1.116c.225.454.332.958.309 1.465a4.48 4.48 0 01-3.118.16 6.492 6.492 0 01-1.38-.579 9.641 9.641 0 01-1.24-.757zm3.191-4.54c-.588 0-1.505.053-2.252-.463a6.396 6.396 0 01-.58-.478 5.6 5.6 0 01-.54-.548 11.86 11.86 0 01-.999-1.236 28.47 28.47 0 01-1.439-2.412c-.18-.329-.306-.617-.406-.817l-.067-.17-.037-.119.466.033c.31.04.491.068.794.146.954.242 1.875.604 2.738 1.077a7.18 7.18 0 012.519 2.162c.305.431.51.925.6 1.445.099.437.096.875 0 1.326" fill="#D09F68"/></svg>