<?xml version="1.0" encoding="utf-8"?><svg viewBox="0 0 17 17" xmlns="http://www.w3.org/2000/svg" xmlns:xlink="http://www.w3.org/1999/xlink"><style>:root>svg{display:none}:root>svg:target{display:block}</style><svg viewBox="0 0 12 7" id="angle-down" xmlns="http://www.w3.org/2000/svg"><path d="m11 .5-5 5-5-5"/></svg><svg viewBox="0 0 17 17" id="instagram" xmlns="http://www.w3.org/2000/svg"><path d="M12.25 1h-7.5A3.75 3.75 0 0 0 1 4.75v7.5A3.75 3.75 0 0 0 4.75 16h7.5A3.75 3.75 0 0 0 16 12.25v-7.5A3.75 3.75 0 0 0 12.25 1Z" stroke-width="1.4" stroke-linecap="round" stroke-linejoin="round"/><path d="M8.5 11.313a2.813 2.813 0 1 0 0-5.626 2.813 2.813 0 0 0 0 5.625ZM12.719 4.281v.001" stroke-width="1.4" stroke-linecap="round" stroke-linejoin="round"/></svg><svg viewBox="0 0 17 16" id="telegram" xmlns="http://www.w3.org/2000/svg"><path d="M11 6 7.667 9.333l5 5L16 1 1 6.833 4.333 8.5 6 13.5l2.5-3.333" stroke-width="1.4" stroke-linecap="round" stroke-linejoin="round"/></svg><svg viewBox="0 0 17 17" id="whatsapp" xmlns="http://www.w3.org/2000/svg"><path d="m1 15.98 1.374-3.166a7.497 7.497 0 1 1 2.833 2.416L1 15.98" stroke-width="1.4" stroke-linecap="round" stroke-linejoin="round"/><path d="M5.998 6.817a.416.416 0 0 0 .833 0v-.833a.416.416 0 0 0-.833 0v.833Zm0 0a4.165 4.165 0 0 0 4.165 4.165h.833a.416.416 0 1 0 0-.833h-.833a.416.416 0 1 0 0 .833" stroke-width="1.4" stroke-linecap="round" stroke-linejoin="round"/></svg></svg>